<?xml version="1.0" standalone="no"?>
<!DOCTYPE svg PUBLIC "-//W3C//DTD SVG 20010904//EN"
 "http://www.w3.org/TR/2001/REC-SVG-20010904/DTD/svg10.dtd">
<svg version="1.0" xmlns="http://www.w3.org/2000/svg"
 width="95.000000pt" height="112.000000pt" viewBox="0 0 95.000000 112.000000"
 preserveAspectRatio="xMidYMid meet">

<g transform="translate(0.000000,112.000000) scale(0.100000,-0.100000)"
fill="#000000" stroke="none">
<path d="M520 1021 l0 -70 48 -3 47 -3 3 -292 2 -293 -45 0 -45 0 -2 258 -3
257 -117 3 -118 3 0 -76 0 -75 45 0 45 0 0 -185 0 -185 -45 0 -45 0 0 -75 0
-75 45 0 c45 0 45 0 45 -35 l0 -35 -165 0 -165 0 0 -70 0 -70 240 0 240 0 0
105 0 105 115 0 115 0 0 440 0 440 -120 0 -120 0 0 -69z"/>
</g>
</svg>
