<?xml version="1.0" standalone="no"?>
<!DOCTYPE svg PUBLIC "-//W3C//DTD SVG 20010904//EN"
 "http://www.w3.org/TR/2001/REC-SVG-20010904/DTD/svg10.dtd">
<svg version="1.0" xmlns="http://www.w3.org/2000/svg"
 width="512.000000pt" height="512.000000pt" viewBox="0 0 512.000000 512.000000"
 preserveAspectRatio="xMidYMid meet">

<g transform="translate(0.000000,512.000000) scale(0.100000,-0.100000)"
fill="#000000" stroke="none">
<path d="M2796 4445 c-21 -7 -51 -26 -67 -41 -63 -60 -59 14 -59 -1186 0 -601
-5 -1169 -10 -1263 -17 -305 -73 -440 -208 -502 -30 -14 -66 -17 -197 -17
-145 0 -168 3 -248 27 -103 32 -154 34 -205 8 -85 -44 -100 -77 -146 -334 -42
-236 -39 -273 31 -339 81 -77 338 -132 613 -132 328 1 571 75 776 238 195 154
335 419 389 731 30 174 35 380 35 1501 0 1266 4 1201 -69 1267 -22 20 -57 40
-78 46 -59 17 -508 14 -557 -4z"/>
</g>
</svg>
